<svg width="1025" height="1024" viewBox="0 0 1025 1024" fill="none" xmlns="http://www.w3.org/2000/svg">
<path d="M861.572 609.808C861.572 366.482 649.91 165.262 556.223 88.1141C542.814 77.0731 536.03 71.4865 526.027 68.6542C518.237 66.4487 506.773 66.4487 498.984 68.6542C488.962 71.4919 482.225 77.0237 468.766 88.1064C375.079 165.254 163.428 366.46 163.428 609.786C163.428 701.87 200.203 790.193 265.667 855.307C331.132 920.42 419.914 957 512.494 957C605.074 957 693.867 920.414 759.331 855.301C824.795 790.188 861.572 701.892 861.572 609.808Z" fill="#005461"/>
<path d="M407.512 429.431C419.829 408.098 450.621 408.098 462.937 429.431L624.433 709.15C636.75 730.483 621.354 757.15 596.72 757.15H273.729C249.095 757.15 233.699 730.483 246.016 709.15L407.512 429.431Z" fill="#3BC1A8"/>
<path d="M626.04 834.389C613.723 855.723 582.931 855.723 570.614 834.389L409.119 554.671C396.802 533.337 412.198 506.671 436.832 506.671H759.823C784.457 506.671 799.853 533.337 787.536 554.671L626.04 834.389Z" fill="#249E94"/>
</svg>
